HIERARCHY
ROOT Hips
{
    OFFSET 0.000000 0.000000 0.000000
    CHANNELS 6 Xposition Yposition Zposition Zrotation Xrotation Yrotation
    JOINT Spine
    {
        OFFSET -0.000000 8.172037 0.000000
        CHANNELS 3 Zrotation Xrotation Yrotation
        JOINT Spine1
        {
            OFFSET -0.000000 18.392342 0.000000
            CHANNELS 3 Zrotation Xrotation Yrotation
            JOINT Neck
            {
                OFFSET -0.000000 18.316809 1.665164
                CHANNELS 3 Zrotation Xrotation Yrotation
                JOINT Head
                {
                    OFFSET -0.000000 13.952258 -1.993180
                    CHANNELS 3 Zrotation Xrotation Yrotation
                    End Site
                    {
                        OFFSET -0.000000 24.914745 0.000000
                    }
                }
            }
            JOINT LeftShoulder
            {
                OFFSET 4.035833 16.062790 -0.310290
                CHANNELS 3 Zrotation Xrotation Yrotation
                JOINT LeftArm
                {
                    OFFSET 12.395579 0.000000 0.000000
                    CHANNELS 3 Zrotation Xrotation Yrotation
                    JOINT LeftForeArm
                    {
                        OFFSET 26.414022 0.000000 0.000000
                        CHANNELS 3 Zrotation Xrotation Yrotation
                        JOINT LeftHand
                        {
                            OFFSET 28.641636 0.000000 0.000000
                            CHANNELS 3 Zrotation Xrotation Yrotation
                            End Site
                            {
                                OFFSET 14.948848 0.000000 0.000000
                            }
                        }
                    }
                }
            }
            JOINT RightShoulder
            {
                OFFSET -3.919767 16.062790 -0.310290
                CHANNELS 3 Zrotation Xrotation Yrotation
                JOINT RightArm
                {
                    OFFSET -12.395579 0.000000 0.000000
                    CHANNELS 3 Zrotation Xrotation Yrotation
                    JOINT RightForeArm
                    {
                        OFFSET -26.414022 0.000000 0.000000
                        CHANNELS 3 Zrotation Xrotation Yrotation
                        JOINT RightHand
                        {
                            OFFSET -28.641636 0.000000 0.000000
                            CHANNELS 3 Zrotation Xrotation Yrotation
                            End Site
                            {
                                OFFSET -14.948848 0.000000 0.000000
                            }
                        }
                    }
                }
            }
        }
    }
    JOINT LeftUpLeg
    {
        OFFSET 9.965899 0.000000 0.000000
        CHANNELS 3 Zrotation Xrotation Yrotation
        JOINT LeftLeg
        {
            OFFSET -0.000000 -49.671295 0.000000
            CHANNELS 3 Zrotation Xrotation Yrotation
            JOINT LeftFoot
            {
                OFFSET -0.000000 -36.155865 0.000000
                CHANNELS 3 Zrotation Xrotation Yrotation
                JOINT LeftToeBase
                {
                    OFFSET -0.000000 -6.477834 14.948848
                    CHANNELS 3 Zrotation Xrotation Yrotation
                    End Site
                    {
                        OFFSET -0.000000 0.000000 3.986359
                    }
                }
            }
        }
    }
    JOINT RightUpLeg
    {
        OFFSET -9.965899 0.000000 0.000000
        CHANNELS 3 Zrotation Xrotation Yrotation
        JOINT RightLeg
        {
            OFFSET -0.000000 -49.671295 0.000000
            CHANNELS 3 Zrotation Xrotation Yrotation
            JOINT RightFoot
            {
                OFFSET -0.000000 -36.155865 0.000000
                CHANNELS 3 Zrotation Xrotation Yrotation
                JOINT RightToeBase
                {
                    OFFSET -0.000000 -6.477834 14.948848
                    CHANNELS 3 Zrotation Xrotation Yrotation
                    End Site
                    {
                        OFFSET -0.000000 0.000000 3.986359
                    }
                }
            }
        }
    }
}
MOTION
Frames:    10
Frame Time:    0.010000
-10.205079    93.913719    -6.719045    -0.467210    5.470069    174.793625    -5.456796    -2.629455    1.305813    1.615284    -6.267396    1.519596    10.047156    22.270271    -0.488665    -5.385664    20.105349    0.264100    13.912903    -1.435414    -12.466894    -45.555889    22.294180    -77.832069    3.345823    -23.120747    -21.785696    21.487946    -20.558603    11.118993    -1.619531    -5.090954    18.751244    48.149036    5.776975    65.073769    -6.025162    -23.592583    21.626398    -4.807731    -21.875072    -16.796627    0.144592    -13.785539    2.941526    -6.067338    28.674381    -0.462418    7.675114    -7.967315    -4.021396    0.000000    0.000000    0.000000    -8.141788    5.760416    0.006469    11.356908    66.138519    1.974924    -2.393456    -3.132782    -0.312921    0.000000    0.000000    0.000000    
-10.322220    94.049873    -8.067960    -0.506742    5.566449    175.299500    -5.438163    -2.669488    1.033650    1.501269    -6.004106    1.239255    9.728404    22.333199    -0.428136    -4.908459    19.959152    0.290891    13.735641    -1.467092    -12.564387    -45.450401    22.110453    -77.638580    3.182802    -22.948223    -21.972672    21.371750    -20.453321    10.923143    -1.693367    -5.030056    18.731436    48.244827    5.661747    65.109818    -5.867705    -23.632998    21.882883    -5.153795    -21.885408    -16.759647    -0.059788    -12.948978    1.676915    -6.804611    28.741493    -0.016616    7.812093    -8.440123    -3.293867    0.000000    0.000000    0.000000    -8.069844    4.367379    -0.734563    12.321018    68.249969    1.083524    -4.789627    -4.710850    -1.246342    0.000000    0.000000    0.000000    
-10.446103    94.215141    -9.408238    -0.614952    5.699172    175.669205    -5.467067    -2.654632    0.847329    1.299451    -5.806315    1.039987    9.510800    22.556562    -0.388882    -4.371296    19.636086    0.308483    13.896608    -1.584118    -12.588638    -45.962666    22.009945    -77.336151    2.887997    -22.692200    -22.245661    21.655293    -20.238457    10.785605    -1.654294    -5.060394    18.676334    48.330784    5.565714    64.998199    -5.606927    -23.507746    22.206633    -5.321264    -21.767962    -16.743055    -0.320907    -11.990870    0.494898    -7.274956    28.701777    -1.164100    7.772295    -8.804008    -1.274124    0.000000    0.000000    0.000000    -8.075803    2.978675    -1.558753    12.592990    70.085533    0.640656    -7.009442    -6.120102    -1.933530    0.000000    0.000000    0.000000    
-10.548801    94.402931    -10.742276    -0.713287    5.887272    175.842377    -5.556017    -2.511507    0.723172    1.166712    -5.716522    0.903360    9.518177    22.550665    -0.399756    -4.201418    19.719757    0.295297    13.966269    -1.478121    -12.403801    -46.063946    22.016699    -77.460503    2.870258    -22.600977    -22.302729    21.516890    -20.178648    10.683595    -1.608530    -5.063279    18.648132    48.334236    5.572310    65.011414    -5.491341    -23.439331    22.356218    -5.456561    -21.694431    -16.741297    -0.537784    -10.867472    -0.236791    -7.766741    28.645035    -2.394523    8.231058    -9.315166    1.067642    0.000000    0.000000    0.000000    -8.107983    1.592087    -1.965652    13.279058    71.589912    -0.161068    -9.012296    -7.450520    -2.171160    0.000000    0.000000    0.000000    
-10.621000    94.587265    -12.044685    -0.781453    5.921412    175.933044    -5.658426    -2.575782    0.655284    1.169099    -5.532990    0.839126    9.353626    22.449898    -0.379353    -3.894036    19.833473    0.291588    13.956734    -1.582483    -12.323273    -46.198734    22.179365    -77.410217    2.936024    -22.672020    -22.365831    21.382225    -20.271194    10.561501    -1.724057    -5.148464    18.551538    48.362328    5.701981    65.026375    -5.518707    -23.406300    22.470333    -5.398337    -21.655912    -16.801315    -0.745113    -9.844054    0.036689    -7.568799    28.408714    -2.697252    8.219008    -9.807425    1.225478    0.000000    0.000000    0.000000    -8.001063    0.012994    -2.169028    13.816711    72.732216    -1.224906    -10.114896    -8.547829    -2.072673    0.000000    0.000000    0.000000    
-10.680188    94.783401    -13.291204    -0.783362    5.868733    175.861191    -5.715558    -2.608394    0.668332    1.183547    -5.524263    0.855742    9.450672    22.668438    -0.385352    -3.852493    19.512381    0.298674    14.041303    -1.517461    -12.201364    -46.267036    22.381783    -77.612419    3.185313    -22.702898    -22.255854    21.414362    -20.285051    10.401397    -1.723946    -5.178832    18.435299    48.131817    5.747482    64.956680    -5.190975    -23.415760    22.728073    -5.478937    -21.698265    -16.922113    -0.883592    -8.885178    1.476547    -6.724206    28.037262    -2.590631    7.790398    -10.179884    -0.410915    0.000000    0.000000    0.000000    -7.785989    -1.687316    -1.976805    14.916729    73.393265    -2.896383    -10.803268    -9.487288    -1.918533    0.000000    0.000000    0.000000    
-10.739376    94.961670    -14.539999    -0.764464    5.846519    175.810837    -5.699224    -2.526844    0.643432    1.091214    -5.676589    0.823354    9.683892    22.703392    -0.481671    -3.991541    19.701490    0.227728    14.253305    -1.304784    -12.006928    -46.495266    22.488194    -77.838432    3.290853    -22.690762    -22.147459    21.290318    -20.284422    10.304633    -1.696925    -5.240056    18.426956    48.079834    5.818517    64.867302    -4.990842    -23.306208    22.729200    -5.421377    -21.632696    -16.923733    -0.983791    -7.833262    3.103451    -5.861963    27.475210    -2.683232    7.409895    -10.456359    -2.136842    0.000000    0.000000    0.000000    -7.813793    -3.172752    -1.198591    19.192926    73.360764    -5.751319    -11.899672    -10.250377    -3.317238    0.000000    0.000000    0.000000    
-10.826206    95.142479    -15.784793    -0.771636    5.772199    175.878952    -5.690885    -2.650329    0.595905    1.232827    -5.638414    0.788456    9.423386    22.814178    -0.440850    -3.827564    19.705551    0.258758    13.912564    -1.334424    -12.198350    -46.653297    22.510439    -77.510887    3.265510    -22.702129    -22.230787    21.467941    -20.256100    10.453291    -1.908466    -5.177545    18.477583    47.968761    5.849883    64.818985    -4.977463    -23.352854    22.710463    -5.376573    -21.684399    -17.035666    -1.102742    -6.779304    4.171188    -5.361796    26.670837    -2.476264    7.122516    -10.567389    -3.696633    0.000000    0.000000    0.000000    -7.638216    -4.711047    -1.288546    19.188637    73.219383    -6.022118    -12.695216    -11.101108    -2.895087    0.000000    0.000000    0.000000    
-10.894120    95.329140    -17.033026    -0.737502    5.772168    176.037949    -5.629452    -2.680865    0.519182    1.155019    -5.597814    0.707587    9.373641    22.970806    -0.467460    -3.572405    19.570633    0.229877    13.891021    -1.254351    -12.286913    -46.766525    22.466583    -77.495148    3.190418    -22.670240    -22.161289    21.425932    -20.260523    10.356284    -1.831678    -5.172956    18.465097    47.782536    5.849721    64.742104    -4.863606    -23.325439    22.645247    -5.317607    -21.685350    -17.115131    -1.151369    -5.635100    4.661036    -5.198783    25.856773    -2.681407    7.091171    -10.644451    -4.223825    0.000000    0.000000    0.000000    -7.405140    -6.110054    -1.671607    17.955368    72.877708    -4.386372    -13.153003    -11.521918    -2.893131    0.000000    0.000000    0.000000    
-10.960629    95.510269    -18.279984    -0.704438    5.761327    176.247574    -5.589808    -2.721689    0.424961    1.130845    -5.535224    0.612580    9.338120    23.106750    -0.476827    -3.392193    19.399944    0.219112    13.904142    -1.298119    -12.356276    -46.907948    22.522902    -77.418999    3.046470    -22.706547    -22.156479    21.488434    -20.287836    10.527024    -1.811317    -5.236104    18.442904    47.723289    5.855361    64.604080    -4.698477    -23.363789    22.633379    -5.273037    -21.758741    -17.181648    -1.192291    -4.441545    4.392424    -5.396824    24.886906    -2.659613    7.216807    -10.705538    -4.151790    0.000000    0.000000    0.000000    -7.268931    -7.380768    -1.671836    18.087633    71.944229    -3.788688    -12.601793    -12.522299    -3.222900    0.000000    0.000000    0.000000    
